HIERARCHY
ROOT Hips
{
	OFFSET 0.00000 0.00000 0.00000
	CHANNELS 6 Xposition Yposition Zposition Zrotation Yrotation Xrotation 
	JOINT LHipJoint
	{
		OFFSET 0 0 0
		CHANNELS 3 Zrotation Yrotation Xrotation
		JOINT LeftUpLeg
		{
			OFFSET 1.80322 -1.53100 0.99595
			CHANNELS 3 Zrotation Yrotation Xrotation
			JOINT LeftLeg
			{
				OFFSET 2.25177 -6.18669 0.00000
				CHANNELS 3 Zrotation Yrotation Xrotation
				JOINT LeftFoot
				{
					OFFSET 2.26601 -6.22582 0.00000
					CHANNELS 3 Zrotation Yrotation Xrotation
					JOINT LeftToeBase
					{
						OFFSET 0.23701 -0.65119 2.15848
						CHANNELS 3 Zrotation Yrotation Xrotation
						End Site
						{
							OFFSET 0.00000 -0.00000 1.12949
						}
					}
				}
			}
		}
	}
	JOINT RHipJoint
	{
		OFFSET 0 0 0
		CHANNELS 3 Zrotation Yrotation Xrotation
		JOINT RightUpLeg
		{
			OFFSET -1.93977 -1.53100 0.99595
			CHANNELS 3 Zrotation Yrotation Xrotation
			JOINT RightLeg
			{
				OFFSET -2.28036 -6.26523 0.00000
				CHANNELS 3 Zrotation Yrotation Xrotation
				JOINT RightFoot
				{
					OFFSET -2.25490 -6.19528 0.00000
					CHANNELS 3 Zrotation Yrotation Xrotation
					JOINT RightToeBase
					{
						OFFSET -0.28375 -0.77960 2.23137
						CHANNELS 3 Zrotation Yrotation Xrotation
						End Site
						{
							OFFSET -0.00000 -0.00000 1.17899
						}
					}
				}
			}
		}
	}
	JOINT LowerBack
	{
		OFFSET 0 0 0
		CHANNELS 3 Zrotation Yrotation Xrotation
		JOINT Spine
		{
			OFFSET -0.00088 2.12090 -0.02806
			CHANNELS 3 Zrotation Yrotation Xrotation
			JOINT Spine1
			{
				OFFSET -0.00286 2.09666 0.12974
				CHANNELS 3 Zrotation Yrotation Xrotation
				JOINT Neck
				{
					OFFSET 0 0 0
					CHANNELS 3 Zrotation Yrotation Xrotation
					JOINT Neck1
					{
						OFFSET 0.07328 1.83526 0.07290
						CHANNELS 3 Zrotation Yrotation Xrotation
						JOINT Head
						{
							OFFSET -0.06683 1.74974 -0.49542
							CHANNELS 3 Zrotation Yrotation Xrotation
							End Site
							{
								OFFSET -0.03398 1.85163 -0.17573
							}
						}
					}
				}
				JOINT LeftShoulder
				{
					OFFSET 0 0 0
					CHANNELS 3 Zrotation Yrotation Xrotation
					JOINT LeftArm
					{
						OFFSET 3.02113 1.18018 0.40602
						CHANNELS 3 Zrotation Yrotation Xrotation
						JOINT LeftForeArm
						{
							OFFSET 4.58538 -0.00000 -0.00000
							CHANNELS 3 Zrotation Yrotation Xrotation
							JOINT LeftHand
							{
								OFFSET 2.68935 -0.00000 -0.00000
								CHANNELS 3 Zrotation Yrotation Xrotation
								JOINT LeftFingerBase
								{
									OFFSET 0 0 0
									CHANNELS 3 Zrotation Yrotation Xrotation
									JOINT LeftHandIndex1
									{
										OFFSET 0.58506 -0.00000 -0.00000
										CHANNELS 3 Zrotation Yrotation Xrotation
										End Site
										{
											OFFSET 0.47169 -0.00000 -0.00000
										}
									}
								}
								JOINT LThumb
								{
									OFFSET 0 0 0
									CHANNELS 3 Zrotation Yrotation Xrotation
									End Site
									{
										OFFSET 0.47889 -0.00000 0.47889
									}
								}
							}
						}
					}
				}
				JOINT RightShoulder
				{
					OFFSET 0 0 0
					CHANNELS 3 Zrotation Yrotation Xrotation
					JOINT RightArm
					{
						OFFSET -2.95074 1.18843 0.31430
						CHANNELS 3 Zrotation Yrotation Xrotation
						JOINT RightForeArm
						{
							OFFSET -4.47450 -0.00000 -0.00000
							CHANNELS 3 Zrotation Yrotation Xrotation
							JOINT RightHand
							{
								OFFSET -2.93896 -0.00000 -0.00000
								CHANNELS 3 Zrotation Yrotation Xrotation
								JOINT RightFingerBase
								{
									OFFSET 0 0 0
									CHANNELS 3 Zrotation Yrotation Xrotation
									JOINT RightHandIndex1
									{
										OFFSET -0.40509 -0.00000 -0.00000
										CHANNELS 3 Zrotation Yrotation Xrotation
										End Site
										{
											OFFSET -0.32660 -0.00000 -0.00000
										}
									}
								}
								JOINT RThumb
								{
									OFFSET 0 0 0
									CHANNELS 3 Zrotation Yrotation Xrotation
									End Site
									{
										OFFSET -0.33158 -0.00000 0.33158
									}
								}
							}
						}
					}
				}
			}
		}
	}
}
MOTION
Frames: 16
Frame Time: 0.0425532
0.00 0.00 0.00 0 0 0 0 0 0 -21 0 0 0 0 0 0 0 0 0 0 0 0 0 0 21 0 0 0 0 0 0 0 0 0 0 0 0 0 0 0 0 0 0 0 0 0 0 -16 0 0 21 0 0 11 0 0 0 -8 0 0 0 0 0 0 0 0 0 0 0 0 0 0 0 0 0 0 0 0 8 0 0 0 0 0 0 0 0 0 0 0 0 0 0 0 0 0
0.00 0.00 0.00 -6.0895 -0.1896 9.9972 0.0000 0.0000 0.0000 -11.5337 -16.2381 -14.2283 2.4860 9.8124 28.3714 0.8092 7.5783 -21.3786 0.0105 -0.6602 -1.8143 0.0000 0.0000 0.0000 21.0095 10.7852 -9.5021 -0.8782 -5.9743 16.7099 -0.0041 -11.2393 -16.0572 -0.0561 1.5289 -4.2055 4.5976 0.2140 -1.8670 0.1500 0.3913 -7.4719 -2.4296 -0.0797 -6.7215 6.0562 -1.9431 -13.4497 -1.5475 -3.9988 29.4584 -2.1698 -1.3362 11.7000 0.0000 -0.0000 0.0000 -80.6756 30.4911 37.6545 65.4680 -57.5992 -38.9259 -0.0000 0.0000 -14.5758 9.5164 19.3721 3.1827 -7.1250 0.0000 -0.0000 -18.2315 48.7181 -1.7246 0.0000 -0.0000 0.0000 84.0949 -13.2493 19.1710 -16.6850 26.4407 -3.9461 0.0000 0.0000 8.1316 -10.8517 -5.9279 1.1342 7.1250 -0.0000 -0.0000 13.2216 -35.7450 3.0745
0.00 0.00 0.00 -6.9268 -1.3729 10.9737 0.0000 0.0000 0.0000 -10.6556 -15.3850 -16.6524 2.6829 10.1631 29.5067 0.8103 7.6600 -21.4524 0.0085 -0.5969 -1.6403 0.0000 0.0000 0.0000 20.8260 10.1330 -12.2376 -0.9831 -6.3111 17.6899 -0.2555 -7.8455 -15.4497 -0.1347 2.3657 -6.5174 4.5715 0.3006 -0.9393 0.8398 0.5930 -7.3603 -1.7069 0.0387 -7.1271 6.2099 -2.1958 -14.1713 -0.8864 -4.5898 27.3531 -1.9973 -1.5672 11.0303 -0.0000 0.0000 0.0000 -79.4742 31.6850 43.1387 88.1229 -59.9867 -58.3745 -0.0000 0.0000 -14.4890 12.6338 18.5329 4.0751 -7.1250 0.0000 -0.0000 -15.0099 48.3519 -1.2676 -0.0000 0.0000 0.0000 83.1442 -13.0630 19.9568 -18.5032 28.7967 -4.7892 0.0000 0.0000 6.0097 -10.8401 -5.6015 1.0708 7.1250 -0.0000 -0.0000 13.1716 -35.4211 3.1690
0.00 0.00 0.00 -7.3353 -3.1235 12.2075 0.0000 0.0000 0.0000 -10.2292 -14.3632 -18.9756 2.7815 10.3326 30.0606 0.7741 7.9751 -21.3668 0.0043 -0.4227 -1.1614 0.0000 0.0000 0.0000 20.0245 9.6331 -15.3165 -1.1111 -6.6969 18.8205 -0.5676 -3.2632 -15.7940 -0.5206 4.6244 -12.8403 4.0835 0.2220 -0.2086 1.3882 0.5370 -7.2286 -0.8611 0.0561 -7.4158 6.5959 -2.2536 -14.7575 -0.2116 -4.9247 25.1195 -1.8283 -1.6735 10.3211 0.0000 -0.0000 0.0000 -78.2104 31.4188 47.9052 108.9153 -58.6040 -76.3043 -0.0000 0.0000 -14.0832 14.6521 18.0874 4.6407 -7.1250 0.0000 -0.0000 -12.9686 48.1987 -1.0396 0.0000 -0.0000 0.0000 82.5694 -12.5052 20.5105 -20.5713 31.3245 -5.8255 0.0000 0.0000 4.5933 -10.7567 -5.4487 1.0334 7.1250 -0.0000 -0.0000 13.2121 -35.2655 3.2305
0.00 0.00 0.00 -7.3171 -6.0988 13.5552 0.0000 0.0000 0.0000 -10.4354 -12.6687 -21.0676 2.7427 10.2665 29.8440 0.6712 8.8076 -21.0903 0.0006 -0.1578 -0.4335 0.0000 0.0000 0.0000 18.3524 9.6463 -18.4995 -1.2958 -7.2122 20.3455 -0.8397 2.1991 -16.7111 -0.9965 6.3528 -17.8115 3.2393 -0.1278 0.4467 1.8681 0.0779 -6.9186 0.1406 -0.1014 -7.4765 7.1050 -2.1546 -15.1326 0.3817 -4.9963 22.6601 -1.6747 -1.6817 9.5208 -0.0000 0.0000 0.0000 -75.5439 27.6721 54.5088 128.4793 -53.5907 -92.6066 -0.0000 0.0000 -12.1774 18.0793 16.5987 5.3278 -7.1250 0.0000 -0.0000 -9.3068 47.1725 -0.5031 -0.0000 0.0000 0.0000 82.1840 -12.0429 22.4228 -24.1285 35.2999 -7.7807 0.0000 0.0000 1.4793 -11.2720 -4.8809 0.9716 7.1250 -0.0000 -0.0000 12.6944 -34.7275 3.2686
0.00 0.00 0.00 -5.6596 -25.7975 13.3931 0.0000 0.0000 0.0000 -14.1738 -3.0277 -16.9273 1.9297 8.7181 24.9174 0.1911 16.5543 -25.1842 0.0254 1.0286 2.8275 0.0000 0.0000 0.0000 12.5748 8.7821 -20.0280 -1.9386 -8.7370 24.9762 0.9427 -17.9683 -13.3578 -0.3470 -3.7848 10.4719 2.1495 -1.4584 -0.4910 2.3441 -1.8161 -6.5915 1.3390 -0.9706 -6.5660 8.6233 -0.6053 -12.9309 -2.4123 -2.4740 25.0578 -2.6223 -0.6726 9.9775 -0.0000 -0.0000 0.0000 -68.3204 -13.5341 60.3039 144.7372 -44.9989 -105.0011 -0.0000 0.0000 -3.2092 17.2208 16.9492 5.1631 -7.1250 0.0000 -0.0000 -10.2082 47.4126 -0.6138 -0.0000 -0.0000 0.0000 80.9557 -14.0472 28.5066 -28.0384 39.1515 -10.1479 0.0000 -0.0000 -2.7694 -12.4642 -2.3922 0.5286 7.1250 -0.0000 -0.0000 11.3597 -32.2873 3.5968
0.00 0.00 0.00 -3.9144 -44.1064 13.0330 0.0000 0.0000 0.0000 -17.0380 4.1289 -10.8816 1.2358 7.0495 19.8620 0.0899 22.8068 -32.7054 0.1145 2.1814 6.0073 0.0000 0.0000 0.0000 12.2035 11.2090 -25.1825 -2.2318 -9.3330 26.8426 0.0896 -7.7154 -8.7836 -0.0005 -0.1499 0.4117 1.9279 -2.5716 -2.3986 2.4826 -3.4198 -7.0145 1.6035 -1.7796 -5.8931 11.3086 3.4790 -10.4849 -7.5066 4.2071 27.1105 -4.1698 2.0903 10.8498 0.0000 0.0000 0.0000 -56.9264 -33.2293 43.5901 135.5060 -50.5182 -98.1525 -0.0000 0.0000 -5.2723 17.3832 22.6507 6.8746 -7.1250 0.0000 -0.0000 -12.0595 53.1958 -2.4595 0.0000 0.0000 0.0000 79.5320 -15.4582 29.7790 -26.9265 38.1090 -9.4537 0.0000 -0.0000 -1.6691 -12.4179 -1.7589 0.3872 7.1250 -0.0000 -0.0000 11.3129 -31.6502 3.7584
0.00 0.00 0.00 -1.5309 -55.5458 11.5434 0.0000 0.0000 0.0000 -19.0192 7.0670 -5.3214 0.8260 5.7985 16.2008 0.3345 24.5271 -36.3584 0.0427 1.3333 3.6663 0.0000 0.0000 0.0000 11.4469 15.5142 -26.6033 -2.5071 -9.8509 28.4951 -0.1930 -0.4825 -8.4862 -0.0020 -0.2888 0.7936 2.0622 -3.5905 -3.3831 2.4386 -4.8546 -7.2703 1.4654 -2.5247 -5.6077 13.5219 6.8264 -8.3864 -11.0901 9.7381 27.6599 -5.2166 4.4440 11.6154 -0.0000 -0.0000 0.0000 -42.2226 -39.3889 26.2978 118.2600 -56.7560 -84.2074 -0.0000 0.0000 -9.6227 16.9259 25.0275 7.3361 -7.1250 0.0000 -0.0000 -13.6193 55.4726 -3.5487 -0.0000 -0.0000 0.0000 77.4813 -16.7476 30.4179 -27.5325 38.6823 -9.8301 0.0000 -0.0000 -2.5666 -12.6713 -2.0616 0.4634 7.1250 -0.0000 -0.0000 11.1516 -31.9612 3.6180
0.00 0.00 0.00 -0.2637 -62.3178 10.9541 0.0000 0.0000 0.0000 -19.2424 8.1196 -1.4231 0.5992 4.9555 13.7816 -0.0055 24.3510 -34.2195 0.0152 -0.7958 -2.1871 0.0000 0.0000 0.0000 11.8188 18.3351 -27.4513 -2.6704 -10.1414 29.4358 -0.2411 2.7863 -8.7309 -0.0072 -0.5477 1.5049 2.2872 -4.2068 -4.1255 2.6776 -5.7259 -7.4571 1.5510 -2.9818 -5.3813 15.0798 8.8563 -6.8839 -13.3270 13.1555 27.6089 -5.8840 5.9298 12.1414 -0.0000 0.0000 0.0000 -31.4792 -40.4281 15.4054 99.2976 -59.6708 -68.0430 -0.0000 0.0000 -10.7024 16.2574 25.4512 7.1430 -7.1250 0.0000 -0.0000 -14.5209 55.7560 -3.8914 -0.0000 0.0000 0.0000 75.7270 -17.3048 30.0935 -27.9146 39.0375 -10.0699 0.0000 -0.0000 -2.7790 -13.7419 -2.8675 0.7009 7.1250 -0.0000 -0.0000 10.4035 -32.8060 3.1525
0.00 0.00 0.00 2.0250 -68.4495 9.5897 0.0000 0.0000 0.0000 -19.6716 8.8914 2.8059 0.3146 3.6055 9.9694 -0.7151 24.6692 -30.1198 0.1550 -2.5365 -6.9909 0.0000 0.0000 0.0000 11.5028 21.8948 -28.5470 -2.9572 -10.6255 31.0270 -0.2439 5.0733 -8.9414 -0.0139 -0.7618 2.0936 2.4035 -4.7189 -4.8908 2.7583 -6.4659 -7.5861 1.5110 -3.3719 -5.0890 16.6198 10.5675 -5.6285 -15.3136 16.0688 27.4826 -6.4986 7.2134 12.7496 0.0000 0.0000 0.0000 -21.2993 -40.4081 6.0677 75.6872 -59.2116 -47.6376 -0.0000 0.0000 -9.5270 15.1229 24.9935 6.5141 -7.1250 0.0000 -0.0000 -15.4338 55.0847 -3.8902 0.0000 0.0000 0.0000 74.1237 -17.5564 28.6244 -27.8970 39.0213 -10.0588 0.0000 -0.0000 -2.8681 -15.0788 -3.3964 0.9145 7.1250 -0.0000 -0.0000 9.3961 -33.3888 2.7056
0.00 0.00 0.00 9.0864 -78.9290 5.3723 0.0000 0.0000 0.0000 -17.9362 21.1310 6.7219 0.0000 -0.0000 -0.0000 -0.6755 15.3100 -11.3533 0.3767 -3.9417 -10.9128 0.0000 0.0000 0.0000 11.3862 26.5722 -31.2463 -3.3859 -11.2950 33.2813 -0.1053 10.6458 -9.0155 -0.0779 -1.8004 4.9544 3.2200 -6.2917 -6.2532 3.9773 -8.6826 -7.8761 2.1680 -4.5306 -4.5706 18.7080 13.5987 -2.9820 -20.8464 21.9130 26.3738 -8.1426 9.5738 14.2242 0.0000 -0.0000 0.0000 -0.2526 -43.2011 -20.2752 25.2248 -36.4329 -8.4231 -0.0000 -0.0000 1.9385 15.1715 22.6717 5.9668 -7.1250 0.0000 -0.0000 -14.2615 52.8201 -2.7897 0.0000 -0.0000 0.0000 71.8704 -18.4372 16.2604 -26.9974 38.1767 -9.4975 0.0000 -0.0000 -1.5773 -15.7900 -3.3032 0.9335 7.1250 -0.0000 -0.0000 8.8107 -33.3180 2.5487
0.00 0.00 0.00 -4.4956 -14.1400 14.1489 0.0000 0.0000 0.0000 -15.5137 -12.2749 -16.1990 1.4734 7.6703 21.7170 -0.1541 15.7648 -20.7532 0.0563 1.5308 4.2107 0.0000 0.0000 0.0000 13.7036 7.0236 -11.8565 -0.9190 -6.1079 17.0977 1.1349 -23.2393 -23.9298 -0.5235 -4.6370 12.8762 3.2185 -0.3117 -1.9145 1.4996 -0.3149 -7.1855 -0.2235 -0.3080 -6.4062 2.0642 -6.7281 -10.2142 1.4622 -9.8193 15.5100 -0.6958 -4.5267 6.3717 -0.0000 -0.0000 0.0000 -70.4072 25.0652 53.3215 118.1768 -56.7765 -84.1377 -0.0000 0.0000 -4.1464 20.3462 15.2930 5.5862 -7.1250 0.0000 -0.0000 -6.8668 46.1235 -0.1913 -0.0000 -0.0000 0.0000 81.7784 -16.2004 29.4164 -24.3335 35.5149 -7.8994 0.0000 -0.0000 -4.0720 -14.6261 -1.4743 0.3847 7.1250 -0.0000 -0.0000 9.5330 -31.4150 3.2058
0.00 0.00 0.00 144.4590 -88.3160 -128.7490 0.0000 0.0000 0.0000 -12.6490 32.8408 6.7582 0.0000 -0.0000 -0.0000 -0.0741 -5.7550 5.4436 0.8318 -5.8185 -16.2587 0.0000 0.0000 0.0000 10.7042 29.7782 -31.8067 -4.1380 -12.3418 36.9520 -0.4523 7.7012 -12.3438 -0.0945 -1.9830 5.4588 1.2952 -6.7033 -7.0884 5.2707 -9.3006 -8.7805 4.4665 -4.7801 -4.5465 16.8895 11.5454 -5.6399 -18.4971 17.9197 26.6734 -7.5303 7.6135 13.2639 0.0000 -0.0000 0.0000 3.5088 -59.4108 -16.8772 25.9100 -37.1197 -8.8333 -0.0000 -0.0000 4.2448 14.3038 20.1066 5.0092 -7.1250 0.0000 -0.0000 -14.0317 50.1476 -1.8117 0.0000 -0.0000 0.0000 70.5392 -18.3600 7.7638 -21.5762 32.4947 -6.3567 0.0000 -0.0000 -3.1037 -15.7980 -3.3723 0.9535 7.1250 -0.0000 -0.0000 8.8124 -33.3892 2.5338
0.00 0.00 0.00 -1.7824 -47.9752 15.1146 0.0000 0.0000 0.0000 -12.7700 -0.7799 -9.6778 0.9082 6.0727 16.9956 -0.1374 25.0555 -34.4241 0.0521 1.4727 4.0505 0.0000 0.0000 0.0000 15.6909 12.0021 -23.2580 -1.8178 -8.4758 24.1688 0.5594 -16.9619 -17.7766 -0.3815 -3.9667 10.9831 5.9421 -5.1710 -4.0692 4.3302 -6.9435 -7.7460 1.3377 -3.7382 -5.9860 14.8808 11.0980 -6.6151 -18.7288 18.7305 30.7465 -7.3790 7.7485 15.3246 -0.0000 -0.0000 0.0000 -17.0701 -36.7665 12.5127 131.8465 -52.2231 -95.2930 -0.0000 0.0000 -9.7499 14.5026 18.2361 4.6278 -7.1250 0.0000 -0.0000 -13.1593 48.3253 -1.0971 -0.0000 -0.0000 0.0000 70.9277 -19.0644 27.0011 -25.7557 36.9664 -8.7403 0.0000 -0.0000 -6.5560 -15.2266 -1.2991 0.3536 7.1250 -0.0000 -0.0000 9.0391 -31.2486 3.0724
0.00 0.00 0.00 -1.8920 -31.1816 14.4632 0.0000 0.0000 0.0000 -13.3330 -6.9474 -14.1565 1.0893 6.6330 18.6326 -0.4003 19.6585 -24.4246 0.0170 0.8428 2.3164 0.0000 0.0000 0.0000 13.4620 10.0273 -16.4112 -1.0866 -6.6251 18.6094 1.9793 -28.5907 -27.9894 -1.9157 -8.6882 24.8248 5.7729 -2.9119 -3.9018 3.0457 -3.8777 -7.8909 0.0403 -2.2195 -6.2287 15.7084 8.9438 -7.6741 -15.4855 14.3602 29.9924 -6.7731 6.3788 13.8085 0.0000 -0.0000 0.0000 -36.3014 -20.8199 30.8047 142.3797 -46.5951 -103.3108 -0.0000 0.0000 -4.2915 13.3124 13.2127 3.0957 -7.1250 0.0000 -0.0000 -12.7322 43.1777 0.5827 0.0000 -0.0000 0.0000 72.1155 -19.8535 25.4757 -25.4086 36.6188 -8.5325 0.0000 -0.0000 -5.0799 -14.7993 0.2388 -0.0631 7.1250 -0.0000 -0.0000 9.2229 -29.6703 3.4890
0.00 0.00 0.00 168.7040 -81.5637 -153.9040 0.0000 0.0000 0.0000 -21.3972 15.3761 6.1869 0.1071 2.1102 5.8103 -0.8091 16.6955 -12.3830 0.3672 -3.8923 -10.7740 0.0000 0.0000 0.0000 7.3322 25.9396 -31.7013 -3.4607 -11.4059 33.6614 -0.2606 8.1061 -10.0003 -0.0274 -1.0688 2.9382 0.8771 -7.3070 -5.6624 5.8949 -10.0532 -8.4575 5.4721 -5.1163 -4.7653 4.9267 -1.0340 -10.2815 -9.3665 -0.9594 22.4265 -4.1577 -1.2668 8.5685 0.0000 0.0000 0.0000 -31.4755 -66.4470 27.2452 84.3224 -59.8778 -55.0850 -0.0000 0.0000 -2.2340 19.5819 20.4300 7.0783 -7.1250 0.0000 -0.0000 -9.0350 51.3313 -1.4188 0.0000 0.0000 0.0000 67.8519 -17.4356 19.2788 -24.6859 35.8812 -8.1051 0.0000 -0.0000 -8.0162 -16.4307 -3.7064 1.0921 7.1250 -0.0000 -0.0000 8.3393 -33.7556 2.3205
